<svg width="8" height="7" viewBox="0 0 8 7" fill="none" xmlns="http://www.w3.org/2000/svg">
<g id="fone" clip-path="url(#clip0_1_19)">
<path id="fone_2" d="M1.21333 0C1.34667 0 1.47667 0 1.59 0.00636364C1.71 0.0127273 1.87333 -0.0381818 2.03333 0.324545C2.19667 0.696818 2.59 1.61 2.64 1.70227C2.69 1.79455 2.72333 1.90273 2.65667 2.02682C2.59 2.15091 2.56 2.22727 2.46 2.33545C2.36 2.44364 2.25333 2.57727 2.16333 2.66C2.06333 2.75227 1.96333 2.85409 2.07667 3.03864C2.19 3.22318 2.58667 3.83091 3.17333 4.32409C3.92667 4.95727 4.56 5.15136 4.75667 5.24364C4.95333 5.33591 5.07 5.32 5.18333 5.19591C5.29667 5.07182 5.67667 4.655 5.80667 4.46727C5.93667 4.28273 6.07 4.31136 6.25 4.375C6.43 4.43545 7.4 4.88409 7.59667 4.97955C7.79333 5.07182 7.92333 5.11955 7.97333 5.19591C8.02333 5.27227 8.02333 5.64455 7.86 6.07727C7.69667 6.51 6.91 6.90773 6.53 6.95864C6.19 7.00636 5.76 7.02545 5.29 6.88545C5.00333 6.79955 4.63667 6.685 4.16667 6.49409C2.19333 5.69545 0.903333 3.82136 0.803333 3.69727C0.703333 3.57318 0 2.69182 0 1.77864C0 0.865455 0.506667 0.416818 0.69 0.232273C0.873333 0.0477273 1.08333 0 1.21667 0H1.21333Z" fill="#8F7797"/>
</g>
<defs>
<clipPath id="clip0_1_19">
<rect width="8" height="7" fill="white"/>
</clipPath>
</defs>
</svg>
