<svg width="5" height="7" viewBox="0 0 5 7" fill="none" xmlns="http://www.w3.org/2000/svg">
<g id="Pin" clip-path="url(#clip0_1_55)">
<path id="pin" d="M2.4782 2.45517e-05C3.59091 -0.00511847 4.57177 0.689533 4.88387 1.72088C5.08937 2.39942 5.028 3.0591 4.64506 3.66837C4.00472 4.68738 3.3528 5.69952 2.7058 6.71442C2.65635 6.7919 2.60515 6.86836 2.55395 6.94448C2.5038 7.01888 2.49188 7.01888 2.44103 6.94174C2.19976 6.57418 1.95464 6.20903 1.71898 5.83804C1.24942 5.09848 0.776002 4.36062 0.32117 3.61249C-0.237464 2.69394 -0.0579155 1.43321 0.786523 0.660732C1.25223 0.235232 1.84347 0.00311037 2.4782 2.45517e-05ZM2.49644 3.5062C3.09505 3.5062 3.59442 3.02138 3.59547 2.43885C3.59652 1.85357 3.10066 1.36978 2.5003 1.36978C1.89783 1.36978 1.40021 1.85186 1.40091 2.43508C1.40162 3.02001 1.89853 3.50585 2.49644 3.5062Z" fill="#8F7797"/>
</g>
<defs>
<clipPath id="clip0_1_55">
<rect width="5" height="7" fill="white"/>
</clipPath>
</defs>
</svg>
