<svg width="7" height="7" viewBox="0 0 7 7" fill="none" xmlns="http://www.w3.org/2000/svg">
<g id="wpp" clip-path="url(#clip0_1_49)">
<g id="Group">
<g id="Group_2">
<path id="wpp_2" d="M3.5 0.28C1.72452 0.28 0.280002 1.72452 0.280002 3.5C0.280002 4.0544 0.423206 4.59943 0.694806 5.08047L0.285197 6.54227C0.271757 6.59029 0.284657 6.64164 0.319377 6.67734C0.346117 6.70492 0.382622 6.72 0.420002 6.72C0.431202 6.72 0.442574 6.71856 0.453634 6.7159L1.97914 6.33801C2.44492 6.58805 2.9694 6.72 3.5 6.72C5.27548 6.72 6.72 5.27548 6.72 3.5C6.72 1.72452 5.27548 0.28 3.5 0.28ZM2.32996 1.96C2.38512 1.96 2.43998 1.96077 2.48828 1.96301C2.5391 1.96553 2.60743 1.94369 2.67449 2.10301C2.74337 2.26653 2.90862 2.6682 2.92906 2.70922C2.94978 2.7501 2.96361 2.79777 2.93617 2.85223C2.90873 2.90669 2.89504 2.94093 2.8536 2.98867C2.81216 3.03641 2.7667 3.095 2.72946 3.13168C2.68802 3.17242 2.64493 3.21644 2.69309 3.2982C2.74125 3.37996 2.90717 3.64723 3.15301 3.86367C3.46871 4.14171 3.73514 4.22802 3.81774 4.2689C3.90034 4.30978 3.94868 4.30286 3.99684 4.2484C4.045 4.1938 4.2035 4.01009 4.25852 3.92847C4.31354 3.84685 4.36858 3.86016 4.44446 3.88746C4.52034 3.91462 4.92678 4.11209 5.00938 4.15297C5.09198 4.19385 5.14725 4.21438 5.16797 4.2484C5.18869 4.28228 5.18873 4.44559 5.11985 4.63613C5.05097 4.82681 4.72052 5.00103 4.56176 5.02441C4.41924 5.04527 4.23882 5.05403 4.04086 4.99187C3.92088 4.95407 3.76699 4.90402 3.56973 4.81988C2.74051 4.46624 2.19887 3.64168 2.15743 3.58722C2.11613 3.53276 1.82 3.14478 1.82 2.74312C1.82 2.34146 2.03342 2.14402 2.1093 2.06226C2.18518 1.9805 2.2748 1.96 2.32996 1.96Z" fill="#8F7797"/>
</g>
</g>
</g>
<defs>
<clipPath id="clip0_1_49">
<rect width="7" height="7" fill="white"/>
</clipPath>
</defs>
</svg>
