<svg width="7" height="7" viewBox="0 0 7 7" fill="none" xmlns="http://www.w3.org/2000/svg">
<g id="www" clip-path="url(#clip0_1_22)">
<path id="www_2" d="M3.50123 5.72973e-07C5.43402 0.00109428 6.99946 1.56674 7.00028 3.49932C7.00082 5.43409 5.4291 7.0041 3.49576 7C1.56133 6.9959 -0.00273175 5.42862 3.58233e-06 3.49713C0.00273892 1.56373 1.56899 -0.00109313 3.50123 5.72973e-07ZM3.29171 2.26343C2.89426 2.23581 2.50475 2.20874 2.11168 2.1814C2.02525 2.54478 1.97683 2.91418 1.96753 3.28933H3.29171V2.26315V2.26343ZM3.70721 3.28987H5.02837C5.04533 3.07195 4.95124 2.3594 4.88477 2.1907C4.49225 2.21558 4.10027 2.24046 3.70721 2.26534V3.29015V3.28987ZM0.420425 3.28987H1.53535C1.58568 2.89258 1.63519 2.50213 1.68388 2.11988C1.42183 2.05398 1.15568 1.98617 0.888714 1.92192C0.871482 1.91782 0.837017 1.93559 0.828537 1.95254C0.757418 2.09199 0.682744 2.23062 0.623934 2.37553C0.506041 2.66591 0.439846 2.96942 0.420425 3.28987ZM6.16573 5.06195C6.40808 4.64634 6.54867 4.19683 6.57986 3.7104H5.46357C5.41351 4.09867 5.36427 4.48065 5.31504 4.86235C5.58857 4.92661 5.87305 4.99332 6.16573 5.06195ZM6.58068 3.29233C6.54676 2.80099 6.40862 2.35038 6.16573 1.93996C5.87332 2.00504 5.58994 2.0682 5.31832 2.12863C5.36701 2.51607 5.4157 2.90297 5.46466 3.29206H6.58068V3.29233ZM5.03302 3.71095H3.70912V4.71607C4.10383 4.74314 4.49526 4.76993 4.88805 4.79673C4.97394 4.43963 5.01989 4.0798 5.03302 3.71095ZM3.29061 4.71525V3.70986H1.96671C1.98148 4.0798 2.02443 4.441 2.11086 4.78907C2.50831 4.76419 2.89809 4.73985 3.29061 4.71525ZM1.6836 4.85497C1.63437 4.47053 1.58623 4.09238 1.53726 3.70958H0.424254C0.423434 3.72243 0.421792 3.73118 0.422613 3.73993C0.455437 4.19409 0.585913 4.61873 0.807475 5.01629C0.827443 5.05211 0.850146 5.04746 0.880782 5.03898C0.979528 5.01191 1.078 4.98403 1.17757 4.9616C1.34825 4.92332 1.51976 4.88915 1.6836 4.85497ZM4.78493 1.78657C4.70424 1.60502 4.63886 1.44014 4.55926 1.28237C4.43535 1.03711 4.28026 0.813172 4.06526 0.636812C3.95995 0.550409 3.84561 0.479318 3.71076 0.446233V1.85028C4.06553 1.82923 4.41429 1.80845 4.7852 1.78657H4.78493ZM3.29089 5.12949C2.93611 5.15082 2.58599 5.1716 2.22684 5.1932C2.374 5.60115 2.55153 5.97465 2.85788 6.27187C2.98097 6.39135 3.12102 6.48596 3.29089 6.53217V5.12949ZM3.29198 0.447327C3.10379 0.492169 2.88742 0.646655 2.72659 0.844343C2.50202 1.11996 2.34993 1.43303 2.23067 1.77919C2.59201 1.80298 2.94022 1.82595 3.29198 1.84919V0.447053V0.447327ZM3.70857 6.5431C4.31554 6.29237 4.54832 5.7611 4.77672 5.20031C4.4121 5.17652 4.06225 5.15382 3.70857 5.13058V6.5431ZM1.06925 5.40538C1.42949 5.85216 1.85675 6.17343 2.37811 6.36948C2.12044 6.03289 1.94702 5.65501 1.8108 5.25007C1.56407 5.30175 1.32473 5.35178 1.06925 5.40538ZM4.62327 6.36975C5.13751 6.1748 5.56204 5.86036 5.91818 5.42178C5.66735 5.36655 5.42883 5.31378 5.18648 5.26046C5.0519 5.66349 4.87684 6.03562 4.62327 6.37003V6.36975ZM4.64761 0.63107C4.75101 0.806063 4.86316 0.975041 4.95425 1.15496C5.04615 1.33651 5.11755 1.52846 5.20289 1.72806C5.43129 1.68048 5.66789 1.63127 5.91845 1.57904C5.56696 1.14566 5.14818 0.833406 4.64761 0.63107ZM2.35896 0.636265C1.86085 0.830398 1.4459 1.13664 1.09715 1.56072C1.34606 1.61513 1.57993 1.66626 1.81545 1.71794C1.94455 1.32175 2.11688 0.96301 2.35896 0.636265Z" fill="#8F7797"/>
</g>
<defs>
<clipPath id="clip0_1_22">
<rect width="7" height="7" fill="white"/>
</clipPath>
</defs>
</svg>
